<?xml version="1.0" encoding="UTF-8"?>
<svg id="Layer_1" data-name="Layer 1" xmlns="http://www.w3.org/2000/svg" xmlns:xlink="http://www.w3.org/1999/xlink" viewBox="0 0 1700.7 1073.53">
  <defs>
    <style>
      .cls-1 {
        clip-path: url(#clippath);
      }

      .cls-2 {
        fill: none;
      }

      .cls-2, .cls-3, .cls-4, .cls-5, .cls-6, .cls-7, .cls-8, .cls-9, .cls-10, .cls-11, .cls-12, .cls-13, .cls-14 {
        stroke-width: 0px;
      }

      .cls-3 {
        fill: #3d325b;
      }

      .cls-3, .cls-4 {
        opacity: .8;
      }

      .cls-3, .cls-4, .cls-5, .cls-6 {
        isolation: isolate;
      }

      .cls-4 {
        fill: #636;
      }

      .cls-15 {
        clip-path: url(#clippath-1);
      }

      .cls-5 {
        fill: #231f20;
        opacity: .28;
      }

      .cls-6 {
        fill: #c7b299;
        opacity: .21;
      }

      .cls-16 {
        opacity: .75;
      }

      .cls-7 {
        fill: #4f4faa;
      }

      .cls-8 {
        fill: #282660;
      }

      .cls-9 {
        fill: #7c4371;
      }

      .cls-10 {
        fill: #55a1bc;
      }

      .cls-11 {
        fill: #8ab9ce;
      }

      .cls-12 {
        fill: #258e8e;
      }

      .cls-13 {
        fill: #fff;
      }

      .cls-14 {
        fill: #67c1a0;
      }
    </style>
    <clipPath id="clippath">
      <circle class="cls-2" cx="791.72" cy="536.74" r="37"/>
    </clipPath>
    <clipPath id="clippath-1">
      <circle class="cls-2" cx="1453.22" cy="441.24" r="174.5"/>
    </clipPath>
  </defs>
  <g id="baggrund">
    <rect class="cls-9" x="-111.28" y="-4.26" width="1920" height="1080"/>
  </g>
  <g id="støvskyer">
    <path class="cls-4" d="M1151.72,544.74c11-74-653.51-55.16-647-231,11-297,488-48,640-126,601.65-308.74,266-6,326.14,128.64,56.3,126.04,481.84,97.36,556.86,97.36,243,0,289,149.22,289,194s-401.95,30.72-353,91c108,133-105.7,259.78-268,239-164-21-135.16-140.7-233.83-211-143.17-102-603.97-57.26-642.17-105-84-105,314.02,43.93,332-77Z"/>
    <path class="cls-4" d="M-832.28,110.74c11-74-653.51-55.16-647-231,11-297,488-48,640-126,601.65-308.74,266-6,326.14,128.64C-456.84,8.42-31.3-20.26,43.72-20.26c243,0,289,149.22,289,194S-69.23,204.46-20.28,264.74c108,133-105.7,259.78-268,239-164-21-135.16-140.7-233.83-211-143.17-102-603.97-57.26-642.17-105-84-105,314.02,43.93,332-77Z"/>
    <path class="cls-4" d="M1620.59,1735.76c-59.84,44.9,426.05,498.6,297.82,619.09-216.59,203.52-380.84-308.88-543.78-360.25-644.96-203.31-193.42-182.71-141.55-320.75,48.55-129.22-274.28-407.95-327.64-460.68-172.84-170.81-100.67-309.28-69.19-341.13,30.29-30.65,307.49,260.69,315.04,183.4,16.67-170.51,257.79-110.48,358.62,18.39,101.89,130.22-2.77,195.08,18,314.44,30.13,173.19,389.34,465.27,382.95,526.07-14.06,133.73-192.47-251.98-290.27-178.6v.02Z"/>
    <path class="cls-6" d="M224.26,256.68c7.38-107.29-300.91-137.99-296.54-392.94,7.39-430.61,189.75-11.58,291.84-124.67,404.1-447.64,322.77,1.46,363.16,196.67,37.81,182.75,154.61-72,205-72,163.21,0,116,184.08,116,249s-166.97,279.82-134.09,367.22c72.54,192.83-70.99,376.65-180,346.52-110.15-30.45-90.78-204-157.05-305.92-96.16-147.89-222.21,201.4-247.86,132.18-56.42-152.24,27.46-220.72,39.54-396.06h0Z"/>
    <path class="cls-3" d="M63.54,665.31c5.18,74.63-655.82,3.91-663.08,179.73-12.25,296.95,482.76,85.99,628.19,175.64,575.68,354.82,264.72,26.77,335.19-102.76,65.98-121.26,487.98-59.4,562.77-53.54,242.26,18.99,299.78-126.18,303.28-170.82,3.37-42.96-398.32-62.04-344.81-118.31,118.06-124.15-85.07-267.25-248.5-259.22-165.14,8.12-145.74,129.71-249.61,192.08-150.7,90.5-606.6,9.88-648.41,54.49-91.95,98.11,316.5-19.26,324.97,102.71h0Z"/>
  </g>
  <g id="baggrund_stjerner" data-name="baggrund stjerner">
    <g class="cls-16">
      <circle class="cls-13" cx="1014.64" cy="412.42" r="6.08"/>
      <circle class="cls-13" cx="1479.64" cy="978.42" r="6.08"/>
      <circle class="cls-13" cx="1437.64" cy="969.42" r="3.08"/>
      <circle class="cls-13" cx="1591.64" cy="43.42" r="3.08"/>
      <circle class="cls-13" cx="382.64" cy="667.42" r="6.08"/>
      <circle class="cls-13" cx="418.48" cy="704.28" r="3.08"/>
      <circle class="cls-13" cx="1048.48" cy="451.28" r="3.08"/>
      <circle class="cls-13" cx="415.48" cy="245.28" r="3.08"/>
    </g>
  </g>
  <g id="jorden">
    <circle class="cls-12" cx="791.72" cy="536.74" r="37"/>
    <g class="cls-1">
      <g>
        <path class="cls-14" d="M757.72,570.74c0-10.98,1-18,23-24,9.65-2.63,10.59,6.9,14,11,5,6,17.63,3.31,17.63,10.18,0,10.98-27.27,19.88-38.25,19.88s-16.37-6.08-16.37-17.06h-.01Z"/>
        <path class="cls-14" d="M810.36,536.64c-4.21.29-6.93.09-9.81-8.18-1.27-3.63,2.37-4.24,3.85-5.66,2.17-2.08.8-6.85,3.43-7.03,4.21-.29,8.35,9.93,8.64,14.14s-1.9,6.44-6.11,6.73Z"/>
        <path class="cls-14" d="M770.72,490.74c9.6-5.33,17.85-8.03,28.62,9.99,5.38,9.01-6.9,10.59-11,14-6,5,7.38,10.01,1.38,12.01-4.68,1.56-12.5-4.89-18-7-6.75-2.59-13-.95-13-7,0-10.98,3-17,12-22Z"/>
      </g>
    </g>
    <path class="cls-5" d="M818.43,511.26s13.93,20.38-8.96,43.27-43.29,8.98-43.29,8.98c14.43,14.43,37.82,14.43,52.25,0s14.43-37.82,0-52.25Z"/>
  </g>
  <g id="venus">
    <circle class="cls-10" cx="1453.22" cy="441.24" r="174.5"/>
    <g id="Layer_12" data-name="Layer 12">
      <g class="cls-15">
        <g>
          <path class="cls-11" d="M1638.1,399.88s-44.57,10.91-61.49,3.99c-19.87-8.12-58.07-39.63-80.66-45.52-36.74-9.58-83.14-6.16-118.2-14.38-35.41-8.3-19.97-69.48-19.97-69.48l84.65-13.58s-79.08,39.93,0,49.51c26.35,3.19,41.53-1.6,63.09-3.99,52.48-5.83,100.63,19.97,100.63,19.97l31.95,73.47h0Z"/>
          <path class="cls-11" d="M1677.23,540.44s-129.38,8.78-158.13,15.97c-98.45,24.61-65.49-12.78-140.56-27.95-35.33-7.14-158.93,41.53-158.93,41.53l4.79-16.77s100.63-55.11,154.93-62.29c78.48-10.39,147.99,60.07,192.47,28.75,35.16-24.76,105.42-22.36,105.42-22.36v43.13h0Z"/>
          <path class="cls-11" d="M1651.68,461.38s-53.51-3.19-91.84,4.79c-77.6,16.17-125.31-35.28-156.53-31.95-59.9,6.39-78.27,51.11-115.8,51.11-24.81,0-67.88-36.74-67.88-36.74l15.17-79.86s51.1,35.14,77.18,35.14c28.14,0,60.98-20.76,104.9-11.98,31.8,6.36,112.44,68.9,142.16,55.9,12.78-5.59,75.87-7.99,75.87-7.99l16.77,21.56v.02Z"/>
        </g>
      </g>
    </g>
    <path class="cls-5" d="M1576.46,317.6s65.98,96.51-42.41,204.9-205.03,42.54-205.03,42.54c68.33,68.33,179.11,68.33,247.44,0,68.33-68.33,68.33-179.11,0-247.44Z"/>
  </g>
  <g id="saturn">
    <circle class="cls-8" cx="388.22" cy="21.24" r="275.5"/>
    <path class="cls-5" d="M582.72-176.26s104.26,152.51-67.02,323.78c-171.27,171.27-323.98,67.22-323.98,67.22,107.97,107.97,283.03,107.97,391,0,107.97-107.97,107.97-283.03,0-391Z"/>
    <path class="cls-7" d="M551.27-435.1c-31.78-11.35-89.41,61.75-150.34,181.57,14.88.7,29.84,2.62,44.76,5.83,29.05-52.59,53.28-82.29,66.53-77.56,28.3,10.11-4.22,173.55-72.64,365.05-68.42,191.5-146.83,338.54-175.13,328.43-13.2-4.72-13.17-42.8-2.43-101.52-13.57-6.96-26.35-14.95-38.3-23.83-28.58,130.78-30.23,223.41,1.47,234.74,49.83,17.81,163.23-172.07,253.28-424.1s122.65-470.78,72.81-488.58v-.03Z"/>
  </g>
</svg>