<svg width="57" height="98" viewBox="0 0 57 98" fill="none" xmlns="http://www.w3.org/2000/svg">
<path d="M34.1881 1.38465C33.8483 0.629128 32.9603 0.292146 32.2048 0.631976L19.8929 6.16982C19.1374 6.50965 18.8004 7.3976 19.1403 8.15312C19.4801 8.90864 20.3681 9.24562 21.1236 8.90579L32.0675 3.98326L36.99 14.9272C37.3298 15.6827 38.2178 16.0197 38.9733 15.6798C39.7288 15.34 40.0658 14.452 39.726 13.6965L34.1881 1.38465ZM10.5049 94.0416C15.3818 94.8552 19.3502 94.6152 22.5261 93.347C25.7411 92.0632 27.999 89.7833 29.5264 86.8149C31.0346 83.8838 31.8295 80.2892 32.2027 76.304C32.5768 72.309 32.5348 67.8261 32.3071 63.0675C31.8454 53.4182 30.6516 42.8855 30.4132 32.1873C30.1768 21.5782 30.9111 11.2578 34.2225 2.53218L31.4177 1.46774C27.899 10.7397 27.1749 21.525 27.4139 32.2541C27.651 42.8943 28.8666 53.9324 29.3105 63.2109C29.5357 67.9161 29.5705 72.2364 29.2158 76.0243C28.8601 79.8221 28.1205 82.9902 26.8589 85.4423C25.6164 87.8569 23.869 89.5804 21.4136 90.5609C18.9192 91.557 15.552 91.8422 10.9986 91.0825L10.5049 94.0416Z" fill="#3D5B99"/>
</svg>
